#!OML:ASF G:\JayActor3\Patient Classification 1\Patient 1\Session 2\male.ASF
:FULLY-SPECIFIED
:DEGREES
4079
root -35.9987 15.2689 -2.94186 398.673 87.1127 35.0832
lowerback 19.0297 -2.70465 -0.501127
upperback 15.6876 -2.16156 -1.49988
thorax 6.41278 -0.483472 -0.986201
lowerneck -5.25497 2.21746 3.39226
upperneck -8.56874 3.14467 0.978868
head -1.75143 1.56042 -0.260005
rclavicle -4.77083e-014 -1.19271e-014
rhumerus -21.0372 1.70501 -74.3473
rradius 76.2988
rwrist 14.8982
rhand -44.6034 13.4066
rfingers 7.12502
rthumb -17.402 -15.8344
lclavicle -4.77083e-014 -1.19271e-014
lhumerus 19.6026 -3.52624 57.6613
lradius 81.6094
lwrist -2.22452
lhand -31.506 17.5908
lfingers 7.12502
lthumb -4.77178 47.517
rfemur -34.3515 -1.77302 28.1106
rtibia 64.9193
rfoot -35.6791 -10.5413
rtoes 21.9004
lfemur -54.3018 11.3622 -23.0863
ltibia 49.3097
lfoot -0.476996 8.4051
ltoes -15.3089
4080
root -35.9574 15.2676 -2.94696 397.232 87.016 33.661
lowerback 18.9923 -2.6903 -0.494234
upperback 15.6858 -2.14463 -1.51956
thorax 6.42886 -0.47436 -1.01437
lowerneck -5.25069 2.26406 3.412
upperneck -8.54464 3.20269 0.932494
head -1.7427 1.58973 -0.277368
rclavicle 1.03368e-014 8.15017e-015
rhumerus -21.105 1.72636 -74.3837
rradius 76.3459
rwrist 14.9019
rhand -44.5998 13.407
rfingers 7.12502
rthumb -17.3985 -15.8344
lclavicle 1.03368e-014 8.15017e-015
lhumerus 19.6046 -3.48082 57.6607
lradius 81.3828
lwrist -2.23142
lhand -31.5875 17.6508
lfingers 7.12502
lthumb -4.85042 47.5753
rfemur -34.1547 -1.63745 28.091
rtibia 64.9302
rfoot -35.8064 -10.5949
rtoes 21.8707
lfemur -54.2323 11.5387 -23.4193
ltibia 47.9175
lfoot 0.202404 7.96194
ltoes -15.1609
4081
root -35.9153 15.2656 -2.95253 395.627 86.9166 32.0649
lowerback 18.9459 -2.67382 -0.476124
upperback 15.6797 -2.12465 -1.537
thorax 6.44413 -0.463284 -1.04695
lowerneck -5.24542 2.31059 3.43759
upperneck -8.51997 3.26014 0.881897
head -1.73378 1.61863 -0.297001
rclavicle -6.16232e-015 -1.59028e-015
rhumerus -21.1781 1.75568 -74.4185
rradius 76.3985
rwrist 14.909
rhand -44.5993 13.3974
rfingers 7.12502
rthumb -17.3981 -15.844
lclavicle -6.16232e-015 -1.59028e-015
lhumerus 19.6025 -3.42915 57.6694
lradius 81.1527
lwrist -2.23837
lhand -31.6385 17.6985
lfingers 7.12502
lthumb -4.89966 47.6219
rfemur -33.9645 -1.48865 28.0821
rtibia 64.9454
rfoot -35.9363 -10.6546
rtoes 21.8141
lfemur -54.141 11.7109 -23.7276
ltibia 46.5362
lfoot 0.681465 7.54477
ltoes -15.1786
4082
root -35.8726 15.2633 -2.95861 394.038 86.8096 30.4786
lowerback 18.8959 -2.65597 -0.457554
upperback 15.6683 -2.10388 -1.55392
thorax 6.4551 -0.452222 -1.07935
lowerneck -5.23483 2.35941 3.46323
upperneck -8.49845 3.32088 0.829864
head -1.72666 1.64913 -0.317192
rclavicle 7.95139e-016 2.18663e-015
rhumerus -21.2551 1.7946 -74.4518
rradius 76.4544
rwrist 14.9146
rhand -44.6057 13.3806
rfingers 7.12502
rthumb -17.4042 -15.8602
lclavicle 7.95139e-016 2.18663e-015
lhumerus 19.5904 -3.36844 57.686
lradius 80.923
lwrist -2.23332
lhand -31.6935 17.7524
lfingers 7.12502
lthumb -4.95279 47.6745
rfemur -33.7811 -1.33325 28.0725
rtibia 64.9633
rfoot -36.0595 -10.7228
rtoes 21.7176
lfemur -54.0305 11.8628 -24.0095
ltibia 45.1754
lfoot 1.03182 7.19517
ltoes -15.2493
4083
root -35.8294 15.2609 -2.96531 392.355 86.7013 28.7935
lowerback 18.8437 -2.63941 -0.429594
upperback 15.6548 -2.08426 -1.56724
thorax 6.46447 -0.441356 -1.11299
lowerneck -5.22094 2.41138 3.48775
upperneck -8.48382 3.38615 0.774086
head -1.72218 1.68193 -0.338476
rclavicle 1.17283e-014 -1.5704e-014
rhumerus -21.3232 1.83741 -74.4823
rradius 76.5036
rwrist 14.9275
rhand -44.6144 13.3533
rfingers 7.12502
rthumb -17.4126 -15.8868
lclavicle 1.17283e-014 -1.5704e-014
lhumerus 19.57 -3.29584 57.7113
lradius 80.6982
lwrist -2.21246
lhand -31.7296 17.8017
lfingers 7.12502
lthumb -4.98762 47.723
rfemur -33.5988 -1.17909 28.0722
rtibia 64.9793
rfoot -36.176 -10.792
rtoes 21.5922
lfemur -53.9021 11.9859 -24.2446
ltibia 43.8427
lfoot 1.3834 6.94697
ltoes -15.3589
4084
root -35.7858 15.2585 -2.97257 390.67 86.5874 27.1038
lowerback 18.794 -2.62408 -0.402778
upperback 15.6415 -2.06655 -1.57663
thorax 6.47315 -0.431832 -1.14146
lowerneck -5.21075 2.46783 3.50823
upperneck -8.47414 3.45744 0.713556
head -1.71851 1.71797 -0.360551
rclavicle -1.15295e-014 -1.72943e-014
rhumerus -21.3692 1.88114 -74.5096
rradius 76.5328
rwrist 14.9451
rhand -44.629 13.3316
rfingers 7.12502
rthumb -17.4266 -15.9073
lclavicle -1.15295e-014 -1.72943e-014
lhumerus 19.5412 -3.20535 57.7457
lradius 80.4802
lwrist -2.17614
lhand -31.7501 17.8347
lfingers 7.12502
lthumb -5.00742 47.7555
rfemur -33.4154 -1.02681 28.0751
rtibia 64.9909
rfoot -36.2873 -10.8598
rtoes 21.4454
lfemur -53.7554 12.0798 -24.4365
ltibia 42.5484
lfoot 1.83819 6.8157
ltoes -15.4011
4085
root -35.7418 15.2565 -2.98043 389.049 86.4656 25.4778
lowerback 18.7424 -2.60917 -0.377839
upperback 15.6304 -2.04951 -1.58486
thorax 6.48533 -0.422822 -1.16761
lowerneck -5.20719 2.52677 3.52296
upperneck -8.46818 3.53246 0.655119
head -1.71493 1.7561 -0.380944
rclavicle -3.79679e-014 -9.34288e-015
rhumerus -21.398 1.92252 -74.532
rradius 76.5513
rwrist 14.9589
rhand -44.627 13.3435
rfingers 7.12502
rthumb -17.4247 -15.8955
lclavicle -3.79679e-014 -9.34288e-015
lhumerus 19.5106 -3.10447 57.7838
lradius 80.27
lwrist -2.12251
lhand -31.7604 17.8814
lfingers 7.12502
lthumb -5.0174 47.802
rfemur -33.227 -0.880908 28.0752
rtibia 64.9947
rfoot -36.3971 -10.9214
rtoes 21.2791
lfemur -53.5922 12.1374 -24.5822
ltibia 41.3023
lfoot 2.47745 6.81617
ltoes -15.3526
4086
root -35.6971 15.2551 -2.98883 387.568 86.3329 23.9899
lowerback 18.6874 -2.59422 -0.360764
upperback 15.622 -2.0331 -1.59386
thorax 6.50283 -0.414686 -1.19023
lowerneck -5.2112 2.58886 3.53735
upperneck -8.46304 3.6114 0.593804
head -1.71019 1.79635 -0.402035
rclavicle 6.16232e-015 -8.74653e-015
rhumerus -21.4042 1.96137 -74.5544
rradius 76.5544
rwrist 14.9764
rhand -44.6271 13.3509
rfingers 7.12502
rthumb -17.4248 -15.8881
lclavicle 6.16232e-015 -8.74653e-015
lhumerus 19.4757 -2.99218 57.8218
lradius 80.0687
lwrist -2.06129
lhand -31.7691 17.9304
lfingers 7.12502
lthumb -5.02581 47.8508
rfemur -33.0326 -0.740644 28.0659
rtibia 64.9901
rfoot -36.5087 -10.9658
rtoes 21.1247
lfemur -53.4151 12.1607 -24.6864
ltibia 40.1173
lfoot 3.31444 6.95772
ltoes -15.1282
4087
root -35.6519 15.254 -2.99773 386.144 86.1894 22.5542
lowerback 18.6308 -2.57674 -0.345449
upperback 15.6113 -2.01409 -1.60358
thorax 6.51871 -0.405551 -1.21296
lowerneck -5.20753 2.65178 3.5478
upperneck -8.46261 3.69235 0.537478
head -1.70833 1.83756 -0.421108
rclavicle 1.98785e-015 1.0138e-014
rhumerus -21.3993 1.99036 -74.5774
rradius 76.5402
rwrist 14.9968
rhand -44.617 13.3827
rfingers 7.12502
rthumb -17.415 -15.8572
lclavicle 1.98785e-015 1.0138e-014
lhumerus 19.4315 -2.8803 57.8559
lradius 79.8783
lwrist -1.99572
lhand -31.7815 17.9806
lfingers 7.12502
lthumb -5.03775 47.9007
rfemur -32.8373 -0.60169 28.0534
rtibia 64.9783
rfoot -36.6145 -11.0055
rtoes 20.9476
lfemur -53.2315 12.1525 -24.7437
ltibia 39.0057
lfoot 4.32825 7.21829
ltoes -14.7711
